<svg width="22" height="26" viewBox="0 0 22 26" fill="none" xmlns="http://www.w3.org/2000/svg">
<path d="M21.2098 25.0507C20.9151 22.4773 20.4774 19.9224 19.8988 17.3977C18.9418 13.5867 17.9388 13.1427 17.5338 10.0747C17.4195 9.40971 17.3913 8.73281 17.4498 8.06066C17.4768 7.83066 17.4068 7.76066 17.3178 7.97666C16.8842 8.95294 16.7182 10.027 16.8368 11.0887C17.1878 13.6727 18.2368 14.9547 18.5048 17.4887C18.7288 19.6297 17.4448 20.9757 15.9528 20.9757C15.4262 21.0259 14.8973 20.9068 14.443 20.6358C13.9888 20.3648 13.6328 19.9559 13.4268 19.4687C12.7728 18.0687 12.8808 15.9327 13.6918 13.4137C15.8108 6.92566 18.6358 5.64466 19.5548 4.83366C19.9807 4.48059 20.296 4.01249 20.4632 3.48518C20.6304 2.95787 20.6424 2.39361 20.4978 1.85966C20.4745 1.76698 20.4239 1.68343 20.3526 1.6198C20.2813 1.55616 20.1926 1.51536 20.0978 1.50266C16.9918 0.942657 15.1648 1.77266 14.1188 2.85466C14.0338 2.54539 13.9095 2.2483 13.7488 1.97066C13.2918 1.19766 12.4918 0.408657 12.0728 0.708657C11.5998 1.04666 11.6618 2.67366 12.4648 4.06366C12.6277 4.33954 12.8467 4.57804 13.1078 4.76366C12.6268 6.35266 13.1858 7.41266 12.8378 8.54766C12.1268 10.7727 11.1808 11.9347 10.4938 16.2007C9.46884 14.0377 11.7538 9.15566 11.7538 9.15566C11.4303 8.06001 10.7946 7.08235 9.92436 6.34215C9.05417 5.60196 7.9872 5.13128 6.85384 4.98766C1.27384 3.88766 -1.86316 9.62866 1.19784 11.9287C2.88984 13.1987 2.59284 9.35566 4.90384 12.0157C5.49284 12.6967 6.09284 13.2157 6.43084 16.4897C6.53203 17.3609 6.86194 18.1899 7.38707 18.8924C7.91221 19.5949 8.61387 20.146 9.42084 20.4897C9.1733 22.0106 9.0459 23.5487 9.03984 25.0897C8.99084 26.0547 10.3538 25.8817 11.0938 25.4117C12.3188 24.6247 11.7078 23.2027 15.4458 23.1387C18.5628 23.0877 18.5328 24.5737 19.5868 25.4227C19.8521 25.6401 20.1794 25.7679 20.5218 25.7877C21.1848 25.7667 21.2608 25.3887 21.2098 25.0507ZM15.7278 3.21466C15.9048 3.21538 16.0759 3.2774 16.2123 3.39015C16.3486 3.50291 16.4416 3.65943 16.4755 3.83307C16.5094 4.00671 16.4821 4.18673 16.3982 4.34248C16.3143 4.49824 16.179 4.62009 16.0153 4.6873C15.8517 4.75451 15.6698 4.76292 15.5006 4.7111C15.3315 4.65927 15.1855 4.55042 15.0876 4.40308C14.9897 4.25573 14.9458 4.079 14.9636 3.90298C14.9813 3.72695 15.0595 3.56251 15.1848 3.43766C15.2562 3.36657 15.3409 3.31027 15.4341 3.272C15.5273 3.23373 15.6271 3.21425 15.7278 3.21466ZM6.93684 7.12066L7.30984 10.8887C6.81633 9.84568 6.00421 8.98648 4.99067 8.43504C3.97713 7.88361 2.8146 7.66846 1.67084 7.82066C2.34803 7.47029 3.10387 7.29971 3.86591 7.32527C4.62794 7.35084 5.37065 7.57169 6.02284 7.96666L5.55784 5.96666C8.09884 5.39366 10.5988 8.71066 10.5988 8.71066C10.5988 8.71066 8.11284 6.38566 6.93684 7.12066Z" fill="url(#paint0_linear)"/>
<path d="M14.2708 1.9956C14.5229 1.78928 14.7945 1.60809 15.0818 1.4546C15.0186 1.15011 14.8889 0.863329 14.7021 0.614749C14.5152 0.36617 14.2757 0.161924 14.0008 0.0166034C13.7688 -0.0883966 13.6168 0.316603 13.5708 0.892603C13.7435 1.09638 13.8991 1.31413 14.0358 1.5436C14.1256 1.68801 14.2042 1.83912 14.2708 1.9956Z" fill="url(#paint1_linear)"/>
<defs>
<linearGradient id="paint0_linear" x1="6.51537" y1="24.0551" x2="22.9085" y2="3.82621" gradientUnits="userSpaceOnUse">
<stop offset="0.16" stop-color="#D34A20"/>
<stop offset="0.29" stop-color="#D74E21"/>
<stop offset="0.43" stop-color="#E15B25"/>
<stop offset="0.54" stop-color="#EF6B2A"/>
<stop offset="1" stop-color="#F0942A"/>
</linearGradient>
<linearGradient id="paint1_linear" x1="13.8579" y1="1.75414" x2="14.9523" y2="0.668635" gradientUnits="userSpaceOnUse">
<stop stop-color="#EF6B2A"/>
<stop offset="1" stop-color="#F0942A"/>
</linearGradient>
</defs>
</svg>
